<svg xmlns="http://www.w3.org/2000/svg" xmlns:xlink="http://www.w3.org/1999/xlink" width="1920" zoomAndPan="magnify" viewBox="0 0 1440 809.999993" height="1080" preserveAspectRatio="xMidYMid meet" version="1.0"><defs><filter x="0%" y="0%" width="100%" height="100%" id="595aca0692"><feColorMatrix values="0 0 0 0 1 0 0 0 0 1 0 0 0 0 1 0 0 0 1 0" color-interpolation-filters="sRGB"/></filter><mask id="20306a6bbc"><g filter="url(#595aca0692)"><rect x="-144" width="1728" fill="#000000" y="-80.999999" height="971.999992" fill-opacity="0.3"/></g></mask><clipPath id="388012b199"><path d="M 618 684 L 686.609375 684 L 686.609375 704 L 618 704 Z M 618 684 " clip-rule="nonzero"/></clipPath><clipPath id="5ce1bcd310"><path d="M 298 735 L 373 735 L 373 755.492188 L 298 755.492188 Z M 298 735 " clip-rule="nonzero"/></clipPath><clipPath id="a1eda575ad"><rect x="0" width="688" y="0" height="757"/></clipPath></defs><g mask="url(#20306a6bbc)"><g transform="matrix(1, 0, 0, 1, 410, 27)"><g clip-path="url(#a1eda575ad)"><path fill="#da563e" d="M 471.367188 297.183594 L 512.636719 221.167969 C 523.652344 201.765625 517.890625 183.375 502.222656 181.320312 C 486.542969 179.261719 479.222656 202.597656 479.222656 202.597656 L 455.082031 285.046875 L 424.398438 379.632812 L 430.546875 381.925781 L 471.367188 297.183594 " fill-opacity="1" fill-rule="nonzero"/><path fill="#17100f" d="M 489.699219 116.082031 C 489.699219 116.082031 493.574219 132.613281 489.699219 142.171875 C 485.820312 151.730469 439.921875 232.566406 477.292969 253.003906 L 497.699219 165.945312 C 497.699219 165.945312 502.34375 121.765625 501.3125 121.765625 C 500.285156 121.765625 489.699219 116.082031 489.699219 116.082031 " fill-opacity="1" fill-rule="nonzero"/><path fill="#da563e" d="M 626.746094 675.1875 L 618.667969 679.320312 C 618.667969 679.320312 590.003906 633.746094 579.636719 615.617188 C 570.394531 599.417969 552.332031 574.421875 556.527344 524.796875 C 536.753906 496.605469 498.132812 420.320312 498.132812 420.320312 C 496.304688 415.644531 486.542969 408.394531 486.542969 408.394531 L 545.363281 376.324219 C 557.980469 408.152344 575.65625 467.847656 591.039062 517.128906 C 591.039062 517.128906 594.296875 524.703125 592.226562 531.40625 C 592.226562 531.40625 588.910156 541.644531 597.3125 574.945312 C 600.503906 587.605469 626.746094 675.1875 626.746094 675.1875 " fill-opacity="1" fill-rule="nonzero"/><path fill="#111321" d="M 526.648438 400.394531 L 549.632812 387.859375 L 550.472656 388.167969 C 557.546875 406.132812 598.476562 517.113281 621.238281 643.742188 C 611.832031 655.554688 616.832031 654.742188 599.996094 657.96875 C 548.21875 570.226562 502.992188 431.550781 502.992188 431.550781 C 502.390625 430.007812 500.925781 428.171875 499.226562 426.421875 L 526.648438 400.394531 " fill-opacity="1" fill-rule="nonzero"/><path fill="#f36847" d="M 558.273438 302.890625 C 558.988281 313.304688 554.042969 327.585938 554.160156 347.566406 C 554.5625 356.613281 554.421875 364.855469 553.859375 372.429688 C 553.660156 376.878906 553.402344 380.582031 553.019531 383.144531 C 553.019531 383.144531 552.878906 383.160156 552.679688 383.191406 C 552.402344 385.140625 552.101562 387.023438 551.792969 388.851562 C 520.375 380.589844 488.695312 372.003906 461.261719 354.445312 C 461.738281 353.820312 462.039062 353.453125 462.039062 353.453125 C 471.445312 334.335938 497.824219 324.730469 486.359375 292.792969 C 455.34375 206.332031 483.441406 185.023438 488.828125 177.988281 C 488.828125 177.988281 487.6875 178.3125 490.371094 177.394531 L 489.222656 177.308594 C 501.726562 164.652344 503.824219 147.0625 502.992188 133.175781 C 500.191406 128.355469 483.304688 97.542969 495.585938 76.230469 C 503.695312 62.105469 515.953125 58.546875 526.53125 58.601562 L 526.53125 58.59375 C 537.972656 58.972656 544.570312 60.414062 553.042969 67.867188 C 553.042969 67.867188 567.292969 78.117188 564.042969 102.28125 C 564.042969 102.28125 561.003906 106.871094 568.648438 119.53125 C 568.648438 119.53125 571.519531 123.386719 569.746094 124.953125 C 568.25 126.226562 564.328125 129.359375 564.328125 129.359375 C 564.328125 129.359375 564.777344 131.640625 564.328125 133.648438 C 564.328125 133.648438 564.628906 135.914062 563.117188 137.6875 C 561.582031 139.441406 561.375 144.753906 560.710938 150.195312 C 560.710938 150.195312 559.699219 154.597656 554.683594 154.523438 C 551.429688 154.5 549.800781 154.621094 540.695312 152.753906 C 540.695312 152.753906 536.925781 151.960938 532.695312 150.859375 C 530.421875 162.667969 532.671875 166.632812 535.929688 171.402344 C 535.953125 171.417969 581.234375 229.90625 583.207031 238.972656 C 585.097656 247.695312 585.167969 259.507812 565.757812 270.335938 C 565.757812 270.335938 556.96875 284.585938 558.273438 302.890625 " fill-opacity="1" fill-rule="nonzero"/><path fill="#ce4332" d="M 511.007812 130.128906 C 511.007812 130.128906 509.8125 159.144531 533.136719 166.5625 C 531.679688 163.101562 531.183594 158.71875 532.695312 150.859375 L 533.035156 150.949219 C 526.785156 149.015625 515.191406 143.699219 511.007812 130.128906 " fill-opacity="1" fill-rule="nonzero"/><path fill="#da563e" d="M 392.09375 574.476562 C 401.808594 558.5625 412.832031 535.734375 449.308594 515.222656 C 450.167969 497.5 451.902344 478.015625 453.375 463.265625 L 510.121094 463.265625 C 502.175781 482.84375 493.882812 496.589844 481.273438 530.347656 C 481.273438 530.347656 479.191406 538.3125 473.457031 542.351562 C 473.457031 542.351562 461.347656 546.890625 436.242188 570.324219 C 426.703125 579.234375 362.667969 644.476562 362.667969 644.476562 L 355.152344 639.40625 C 355.152344 639.40625 381.214844 592.296875 392.09375 574.476562 " fill-opacity="1" fill-rule="nonzero"/><path fill="#1d1b34" d="M 455.234375 440.199219 C 456.398438 436.027344 453.984375 426.847656 453.285156 424.347656 C 448.445312 415.660156 446.425781 407.089844 446.132812 399.058594 C 446.207031 396.351562 446.292969 393.652344 446.402344 390.972656 C 448.640625 369.351562 462.039062 353.453125 462.039062 353.453125 C 464.0625 349.339844 466.871094 345.667969 469.917969 342.113281 C 492.382812 358.257812 537.496094 373.253906 553.527344 378.277344 C 553.382812 380.167969 553.21875 381.816406 553.019531 383.144531 C 553.019531 383.144531 552.878906 383.160156 552.679688 383.191406 C 553.621094 431.699219 519.605469 445.375 519.605469 445.375 L 516.195312 444.296875 C 512.992188 454.839844 509.019531 466.460938 504.605469 478.839844 C 479.222656 479.96875 459.796875 471.179688 451.207031 466.375 C 453.453125 451.070312 455.234375 440.199219 455.234375 440.199219 " fill-opacity="1" fill-rule="nonzero"/><path fill="#ed9d2a" d="M 583.207031 238.972656 C 582.226562 234.472656 565 210.257812 553.527344 194.613281 C 530.875 183.25 530.746094 184.539062 511.007812 173.675781 C 505.445312 170.605469 500.183594 169.410156 495.46875 169.273438 C 493.75 172.109375 491.699219 174.804688 489.222656 177.308594 L 490.371094 177.394531 C 487.6875 178.3125 488.828125 177.988281 488.828125 177.988281 C 483.980469 184.316406 460.789062 202.296875 478.828125 268.871094 C 478.75 273.902344 478.976562 279.195312 479.878906 283.234375 C 482.300781 293.914062 484.675781 306.316406 482.109375 313.898438 C 479.539062 321.46875 458.320312 349.957031 462.039062 353.453125 C 465.757812 356.945312 509.375 387.957031 553.527344 383.128906 C 553.527344 383.128906 566.050781 312.078125 562.816406 276.386719 C 564.398438 272.582031 565.757812 270.335938 565.757812 270.335938 C 585.167969 259.507812 585.097656 247.695312 583.207031 238.972656 " fill-opacity="1" fill-rule="nonzero"/><path fill="#6d131b" d="M 491.9375 178.160156 L 501.472656 362.261719 L 512.234375 357.070312 L 501.472656 198.832031 " fill-opacity="1" fill-rule="nonzero"/><path fill="#6d131b" d="M 575.980469 338.695312 C 575.980469 338.695312 526.792969 188.679688 511.007812 166.5625 C 511.007812 166.5625 556.683594 313.199219 565.640625 338.695312 L 575.980469 338.695312 " fill-opacity="1" fill-rule="nonzero"/><path fill="#6d131b" d="M 575.292969 329.738281 C 575.292969 329.738281 502.214844 352.519531 499.835938 358.351562 C 497.445312 364.183594 503.507812 401.914062 510.121094 409.234375 C 516.734375 416.539062 570 411.71875 584.011719 395.179688 C 598.015625 378.65625 582.867188 331.117188 575.292969 329.738281 " fill-opacity="1" fill-rule="nonzero"/><path fill="#f36847" d="M 521.285156 291.722656 L 489.082031 202.691406 C 489.082031 202.691406 480.703125 179.710938 494.390625 171.816406 C 508.078125 163.917969 523.839844 175.011719 526.894531 197.113281 L 562.207031 377.660156 L 554.375 383.128906 C 554.375 383.128906 530.273438 316.59375 521.285156 291.722656 " fill-opacity="1" fill-rule="nonzero"/><path fill="#1d1b34" d="M 357.234375 634.261719 C 360.945312 636.96875 363.394531 637.070312 363.394531 637.070312 C 363.832031 635.867188 364.636719 632.703125 365.613281 632.25 C 369.550781 630.421875 376.625 636.128906 376.625 636.128906 C 376.847656 638.265625 374.550781 641.320312 376.726562 645.007812 C 383.863281 657.089844 392.820312 672.59375 396.390625 678.664062 C 399.5625 684.042969 399.355469 687.628906 398.097656 690.183594 C 398.097656 690.183594 397.300781 693.390625 394.554688 692.464844 C 391.800781 691.539062 343.265625 655.507812 343.265625 655.507812 C 343.265625 655.507812 341.105469 651.03125 357.234375 634.261719 " fill-opacity="1" fill-rule="nonzero"/><path fill="#a3cdde" d="M 378.414062 647.894531 C 378.414062 647.894531 371.617188 644.566406 366.609375 648.84375 C 366.609375 648.84375 364.574219 650.714844 366.734375 651.625 C 366.734375 651.625 373.332031 649.003906 380.019531 650.625 C 380.019531 650.625 380.722656 649.445312 378.414062 647.894531 " fill-opacity="1" fill-rule="nonzero"/><path fill="#a3cdde" d="M 381.988281 654.226562 C 381.988281 654.226562 374.21875 650.398438 369.441406 655.113281 C 369.441406 655.113281 368.03125 656.117188 369.550781 657.34375 C 369.550781 657.34375 377.125 653.507812 383.898438 657.074219 C 383.898438 657.074219 383.792969 654.921875 381.988281 654.226562 " fill-opacity="1" fill-rule="nonzero"/><path fill="#a3cdde" d="M 384.570312 658.886719 C 384.570312 658.886719 376.808594 655.058594 372.019531 659.773438 C 372.019531 659.773438 370.621094 660.777344 372.140625 662.011719 C 372.140625 662.011719 379.710938 658.167969 386.476562 661.742188 C 386.476562 661.742188 386.375 659.582031 384.570312 658.886719 " fill-opacity="1" fill-rule="nonzero"/><path fill="#a3cdde" d="M 387.503906 663.613281 C 387.503906 663.613281 379.742188 659.789062 374.957031 664.496094 C 374.957031 664.496094 373.546875 665.503906 375.066406 666.738281 C 375.066406 666.738281 382.640625 662.890625 389.402344 666.460938 C 389.402344 666.460938 389.300781 664.308594 387.503906 663.613281 " fill-opacity="1" fill-rule="nonzero"/><path fill="#a3cdde" d="M 363.394531 637.070312 C 363.394531 637.070312 363.023438 639.238281 362.390625 639.277344 C 361.742188 639.316406 355.714844 637.703125 355.007812 636.714844 C 354.289062 635.734375 356.203125 633.835938 357.34375 633.867188 C 357.34375 633.867188 362.769531 636.839844 363.394531 637.070312 " fill-opacity="1" fill-rule="nonzero"/><path fill="#a3cdde" d="M 397.988281 690.824219 C 397.988281 690.824219 398.835938 692.527344 397.917969 693.777344 C 397 695.035156 395.0625 696.261719 395.0625 696.261719 L 341.851562 657.296875 C 341.851562 657.296875 341.660156 652.675781 344.628906 650.300781 C 347.601562 647.910156 352.878906 653.207031 356.25 660.113281 C 356.25 660.113281 390.914062 686.265625 397.988281 690.824219 " fill-opacity="1" fill-rule="nonzero"/><path fill="#1d1b34" d="M 615.09375 676.128906 C 619.601562 675.226562 621.335938 673.503906 621.335938 673.503906 C 620.742188 672.371094 618.96875 669.632812 619.292969 668.613281 C 620.621094 664.472656 629.609375 663.136719 629.609375 663.136719 C 631.34375 664.417969 632.023438 668.183594 636.203125 669.085938 C 649.921875 672.03125 667.390625 675.949219 674.277344 677.445312 C 680.375 678.765625 682.875 681.351562 683.914062 684.003906 C 683.914062 684.003906 685.707031 686.765625 683.167969 688.160156 C 680.628906 689.558594 621.238281 700.804688 621.238281 700.804688 C 621.238281 700.804688 616.484375 699.347656 615.09375 676.128906 " fill-opacity="1" fill-rule="nonzero"/><path fill="#a3cdde" d="M 639.46875 669.816406 C 639.46875 669.816406 632.410156 672.546875 632.175781 679.121094 C 632.175781 679.121094 632.160156 681.890625 634.289062 680.917969 C 634.289062 680.917969 636.84375 674.285156 642.570312 670.472656 C 642.570312 670.472656 642.175781 669.152344 639.46875 669.816406 " fill-opacity="1" fill-rule="nonzero"/><path fill="#a3cdde" d="M 646.542969 671.476562 C 646.542969 671.476562 638.472656 674.585938 638.695312 681.289062 C 638.695312 681.289062 638.480469 683.007812 640.417969 682.730469 C 640.417969 682.730469 642.722656 674.554688 649.9375 672.007812 C 649.9375 672.007812 648.285156 670.621094 646.542969 671.476562 " fill-opacity="1" fill-rule="nonzero"/><path fill="#a3cdde" d="M 651.726562 672.726562 C 651.726562 672.726562 643.648438 675.84375 643.867188 682.554688 C 643.867188 682.554688 643.664062 684.265625 645.59375 683.988281 C 645.59375 683.988281 647.894531 675.8125 655.121094 673.257812 C 655.121094 673.257812 653.457031 671.871094 651.726562 672.726562 " fill-opacity="1" fill-rule="nonzero"/><path fill="#a3cdde" d="M 657.183594 673.78125 C 657.183594 673.78125 649.105469 676.898438 649.328125 683.601562 C 649.328125 683.601562 649.105469 685.316406 651.046875 685.039062 C 651.046875 685.039062 653.355469 676.867188 660.570312 674.308594 C 660.570312 674.308594 658.925781 672.925781 657.183594 673.78125 " fill-opacity="1" fill-rule="nonzero"/><path fill="#a3cdde" d="M 621.335938 673.503906 C 621.335938 673.503906 622.671875 675.242188 622.277344 675.742188 C 621.863281 676.234375 616.585938 679.582031 615.386719 679.429688 C 614.167969 679.289062 614.070312 676.597656 614.878906 675.78125 C 614.878906 675.78125 620.742188 673.804688 621.335938 673.503906 " fill-opacity="1" fill-rule="nonzero"/><g clip-path="url(#388012b199)"><path fill="#a3cdde" d="M 684.292969 684.519531 C 684.292969 684.519531 686.121094 685.054688 686.421875 686.582031 C 686.722656 688.09375 686.308594 690.359375 686.308594 690.359375 L 621.589844 703.058594 C 621.589844 703.058594 618.066406 700.066406 618.335938 696.261719 C 618.605469 692.464844 626.058594 692.179688 633.433594 694.378906 C 633.433594 694.378906 676.152344 686.632812 684.292969 684.519531 " fill-opacity="1" fill-rule="nonzero"/></g><path fill="#17100f" d="M 515.019531 130.128906 C 515.019531 130.128906 499.667969 140.621094 506.820312 152.507812 C 513.972656 164.394531 551.175781 194.359375 538.265625 216.582031 C 538.265625 216.582031 530.019531 229.488281 518.648438 185.570312 C 518.648438 185.570312 513.710938 161.296875 492.382812 173.207031 C 492.382812 173.207031 498.773438 136.492188 492.421875 125.632812 C 486.082031 114.792969 471.730469 74.996094 499.835938 61.054688 C 499.835938 61.054688 525.183594 36.761719 566.675781 73.453125 C 566.675781 73.453125 584.011719 82.753906 515.019531 130.128906 " fill-opacity="1" fill-rule="nonzero"/><path fill="#f36847" d="M 551.785156 376 C 551.785156 376 550.925781 391.574219 554.800781 395.355469 C 559.730469 400.199219 560.101562 407.929688 562.308594 407.929688 C 566.449219 407.929688 582.097656 403.277344 561.351562 373.285156 L 551.785156 376 " fill-opacity="1" fill-rule="nonzero"/><path fill="#da563e" d="M 427.445312 374.703125 C 427.445312 374.703125 411.164062 392.261719 412.964844 405.183594 C 414.777344 418.089844 430.664062 401.992188 432.800781 377.234375 L 427.445312 374.703125 " fill-opacity="1" fill-rule="nonzero"/><path fill="#1d1b34" d="M 365.738281 612.375 C 365.738281 612.375 372.117188 626.324219 383.898438 627.875 C 383.898438 627.875 474.714844 549.335938 482.46875 539.515625 C 490.214844 529.695312 511.941406 457.625 511.941406 457.625 L 454.378906 445.53125 L 446.132812 508 C 446.132812 508 414.855469 522.464844 365.738281 612.375 " fill-opacity="1" fill-rule="nonzero"/><path fill="#f69374" d="M 437.804688 691.996094 L 429.9375 696.648438 C 429.9375 696.648438 402.03125 645.371094 391.953125 624.964844 C 382.949219 606.753906 365.359375 578.609375 369.441406 522.773438 C 350.199219 491.050781 312.582031 405.214844 312.582031 405.214844 C 310.820312 399.9375 301.308594 391.777344 301.308594 391.777344 L 358.570312 355.695312 C 370.855469 391.507812 388.066406 458.691406 403.035156 514.148438 C 403.035156 514.148438 406.210938 522.671875 404.199219 530.210938 C 404.199219 530.210938 400.972656 541.742188 409.144531 579.203125 C 412.261719 593.445312 437.804688 691.996094 437.804688 691.996094 " fill-opacity="1" fill-rule="nonzero"/><path fill="#111321" d="M 340.347656 382.789062 L 362.730469 368.679688 L 363.546875 369.027344 C 370.4375 389.238281 415.640625 522.996094 437.804688 665.472656 C 428.640625 678.773438 431.933594 678.859375 415.539062 682.492188 C 365.128906 583.769531 317.332031 417.835938 317.332031 417.835938 C 316.746094 416.09375 315.304688 414.046875 313.660156 412.074219 L 340.347656 382.789062 " fill-opacity="1" fill-rule="nonzero"/><path fill="#f69374" d="M 209.367188 578.671875 C 218.824219 560.765625 229.554688 535.070312 265.0625 511.996094 C 265.902344 492.046875 267.585938 470.125 269.019531 453.539062 L 324.261719 453.539062 C 316.53125 475.554688 308.453125 491.023438 296.183594 529.007812 C 296.183594 529.007812 294.164062 537.972656 288.570312 542.515625 C 288.570312 542.515625 276.789062 547.636719 252.339844 573.996094 C 243.042969 584.027344 180.71875 657.4375 180.71875 657.4375 L 173.390625 651.726562 C 173.390625 651.726562 198.773438 598.730469 209.367188 578.671875 " fill-opacity="1" fill-rule="nonzero"/><path fill="#1d1b34" d="M 270.832031 427.570312 C 271.960938 422.886719 272.292969 416.253906 271.613281 413.453125 C 257.484375 351.515625 278.832031 321.199219 281.796875 317.203125 C 303.660156 335.363281 351.664062 348.777344 367.265625 354.4375 C 367.128906 356.5625 367.265625 421.285156 333.496094 433.394531 C 332.664062 433.695312 330.972656 431.777344 330.179688 432.191406 C 319.308594 437.863281 317.949219 457.265625 313.660156 471.195312 C 288.949219 472.460938 279.714844 465.101562 271.34375 459.695312 C 273.542969 442.476562 270.832031 427.570312 270.832031 427.570312 " fill-opacity="1" fill-rule="nonzero"/><path fill="#1d1b34" d="M 175.433594 645.941406 C 179.035156 648.988281 181.421875 649.105469 181.421875 649.105469 C 181.84375 647.753906 182.632812 644.191406 183.574219 643.6875 C 187.414062 641.628906 194.296875 648.046875 194.296875 648.046875 C 194.515625 650.460938 192.285156 653.886719 194.398438 658.03125 C 201.347656 671.636719 210.074219 689.066406 213.546875 695.898438 C 216.632812 701.957031 216.425781 706.003906 215.207031 708.875 C 215.207031 708.875 214.433594 712.484375 211.75 711.4375 C 209.074219 710.402344 161.824219 669.855469 161.824219 669.855469 C 161.824219 669.855469 159.71875 664.8125 175.433594 645.941406 " fill-opacity="1" fill-rule="nonzero"/><path fill="#a3cdde" d="M 196.035156 661.285156 C 196.035156 661.285156 189.421875 657.542969 184.546875 662.351562 C 184.546875 662.351562 182.5625 664.464844 184.667969 665.472656 C 184.667969 665.472656 191.089844 662.535156 197.609375 664.347656 C 197.609375 664.347656 198.300781 663.035156 196.035156 661.285156 " fill-opacity="1" fill-rule="nonzero"/><path fill="#a3cdde" d="M 199.519531 668.40625 C 199.519531 668.40625 191.960938 664.109375 187.300781 669.402344 C 187.300781 669.402344 185.941406 670.535156 187.414062 671.929688 C 187.414062 671.929688 194.777344 667.609375 201.371094 671.621094 C 201.371094 671.621094 201.273438 669.191406 199.519531 668.40625 " fill-opacity="1" fill-rule="nonzero"/><path fill="#a3cdde" d="M 202.035156 673.652344 C 202.035156 673.652344 194.476562 669.355469 189.816406 674.652344 C 189.816406 674.652344 188.457031 675.78125 189.9375 677.167969 C 189.9375 677.167969 197.300781 672.847656 203.894531 676.867188 C 203.894531 676.867188 203.796875 674.4375 202.035156 673.652344 " fill-opacity="1" fill-rule="nonzero"/><path fill="#a3cdde" d="M 204.890625 678.972656 C 204.890625 678.972656 197.335938 674.675781 192.675781 679.960938 C 192.675781 679.960938 191.304688 681.101562 192.792969 682.492188 C 192.792969 682.492188 200.152344 678.164062 206.742188 682.183594 C 206.742188 682.183594 206.648438 679.753906 204.890625 678.972656 " fill-opacity="1" fill-rule="nonzero"/><path fill="#a3cdde" d="M 181.421875 649.105469 C 181.421875 649.105469 181.058594 651.542969 180.433594 651.589844 C 179.816406 651.640625 173.945312 649.8125 173.25 648.703125 C 172.554688 647.601562 174.414062 645.457031 175.527344 645.5 C 175.527344 645.5 180.804688 648.851562 181.421875 649.105469 " fill-opacity="1" fill-rule="nonzero"/><path fill="#a3cdde" d="M 215.097656 709.585938 C 215.097656 709.585938 215.921875 711.511719 215.027344 712.917969 C 214.132812 714.328125 212.25 715.710938 212.25 715.710938 L 160.441406 671.863281 C 160.441406 671.863281 160.257812 666.675781 163.152344 663.992188 C 166.050781 661.308594 171.183594 667.265625 174.476562 675.039062 C 174.476562 675.039062 208.222656 704.46875 215.097656 709.585938 " fill-opacity="1" fill-rule="nonzero"/><path fill="#1d1b34" d="M 426.457031 693.054688 C 430.839844 692.050781 432.542969 690.105469 432.542969 690.105469 C 431.957031 688.824219 430.230469 685.746094 430.554688 684.589844 C 431.835938 679.9375 440.597656 678.441406 440.597656 678.441406 C 442.28125 679.882812 442.945312 684.113281 447.011719 685.128906 C 460.367188 688.449219 477.378906 692.851562 484.074219 694.535156 C 490.015625 696.03125 492.445312 698.929688 493.449219 701.917969 C 493.449219 701.917969 495.214844 705.019531 492.738281 706.589844 C 490.253906 708.164062 432.4375 720.816406 432.4375 720.816406 C 432.4375 720.816406 427.808594 719.1875 426.457031 693.054688 " fill-opacity="1" fill-rule="nonzero"/><path fill="#a3cdde" d="M 450.191406 685.949219 C 450.191406 685.949219 443.316406 689.019531 443.082031 696.425781 C 443.082031 696.425781 443.074219 699.546875 445.152344 698.445312 C 445.152344 698.445312 447.628906 690.992188 453.199219 686.6875 C 453.199219 686.6875 452.828125 685.214844 450.191406 685.949219 " fill-opacity="1" fill-rule="nonzero"/><path fill="#a3cdde" d="M 457.078125 687.816406 C 457.078125 687.816406 449.21875 691.324219 449.425781 698.871094 C 449.425781 698.871094 449.226562 700.796875 451.109375 700.488281 C 451.109375 700.488281 453.359375 691.285156 460.382812 688.417969 C 460.382812 688.417969 458.769531 686.84375 457.078125 687.816406 " fill-opacity="1" fill-rule="nonzero"/><path fill="#a3cdde" d="M 462.125 689.226562 C 462.125 689.226562 454.261719 692.730469 454.472656 700.28125 C 454.472656 700.28125 454.269531 702.210938 456.152344 701.894531 C 456.152344 701.894531 458.40625 692.699219 465.425781 689.828125 C 465.425781 689.828125 463.816406 688.261719 462.125 689.226562 " fill-opacity="1" fill-rule="nonzero"/><path fill="#a3cdde" d="M 467.433594 690.414062 C 467.433594 690.414062 459.578125 693.917969 459.789062 701.46875 C 459.789062 701.46875 459.578125 703.398438 461.46875 703.082031 C 461.46875 703.082031 463.714844 693.886719 470.742188 691.015625 C 470.742188 691.015625 469.128906 689.457031 467.433594 690.414062 " fill-opacity="1" fill-rule="nonzero"/><path fill="#a3cdde" d="M 432.542969 690.105469 C 432.542969 690.105469 433.847656 692.066406 433.441406 692.613281 C 433.054688 693.175781 427.921875 696.933594 426.742188 696.785156 C 425.570312 696.617188 425.46875 693.578125 426.25 692.667969 C 426.25 692.667969 431.957031 690.453125 432.542969 690.105469 " fill-opacity="1" fill-rule="nonzero"/><path fill="#a3cdde" d="M 493.828125 702.503906 C 493.828125 702.503906 495.609375 703.105469 495.894531 704.816406 C 496.1875 706.523438 495.792969 709.074219 495.792969 709.074219 L 432.777344 723.363281 C 432.777344 723.363281 429.351562 720 429.613281 715.710938 C 429.875 711.4375 437.144531 711.105469 444.316406 713.597656 C 444.316406 713.597656 485.910156 704.863281 493.828125 702.503906 " fill-opacity="1" fill-rule="nonzero"/><path fill="#1d1b34" d="M 170.636719 630.527344 C 170.636719 630.527344 177.261719 643.6875 196.566406 643.273438 C 196.566406 643.273438 289.796875 550.382812 297.335938 539.328125 C 304.886719 528.289062 334.238281 428.3125 334.238281 428.3125 L 272.578125 404.496094 L 261.96875 503.867188 C 261.96875 503.867188 229.980469 530.589844 170.636719 630.527344 " fill-opacity="1" fill-rule="nonzero"/><path fill="#575aa4" d="M 331.28125 191.558594 C 333.996094 202.171875 336.859375 214.570312 339.847656 229.121094 C 339.847656 229.121094 416.011719 188.882812 424.226562 188.882812 C 424.226562 188.882812 433.59375 204.308594 424.226562 213.699219 C 424.226562 213.699219 352.265625 281.667969 324.261719 281.445312 C 300.398438 281.253906 284.75 217.816406 279.738281 191.558594 L 331.28125 191.558594 " fill-opacity="1" fill-rule="nonzero"/><path fill="#1d1b34" d="M 419.257812 189.105469 C 418.765625 189.785156 418.933594 190.71875 419.613281 191.203125 L 435.144531 202.113281 C 435.816406 202.589844 436.757812 202.421875 437.242188 201.75 L 470.988281 153.726562 C 471.460938 153.046875 471.296875 152.105469 470.613281 151.628906 L 455.089844 140.714844 C 454.410156 140.234375 453.46875 140.398438 452.996094 141.082031 L 419.257812 189.105469 " fill-opacity="1" fill-rule="nonzero"/><path fill="#f69374" d="M 380.675781 99.292969 C 380.675781 99.292969 381.136719 101.59375 380.675781 103.636719 C 380.675781 103.636719 380.976562 105.929688 379.441406 107.726562 C 377.890625 109.507812 377.679688 114.894531 377.003906 120.402344 C 377.003906 120.402344 375.984375 124.882812 370.898438 124.804688 C 367.597656 124.78125 365.945312 124.898438 356.710938 123.015625 C 356.710938 123.015625 352.890625 122.199219 348.601562 121.085938 C 349.40625 128.640625 350.753906 136.238281 351.882812 141.925781 C 351.890625 141.925781 356.203125 147.246094 361.433594 153.941406 L 287.496094 153.941406 C 293.476562 144.085938 299.835938 140.433594 299.835938 140.433594 C 312.511719 127.597656 319.316406 117.230469 318.46875 103.160156 C 315.628906 98.269531 298.515625 67.019531 310.96875 45.410156 C 319.199219 31.085938 331.613281 27.480469 342.351562 27.535156 L 342.359375 27.519531 C 353.949219 27.90625 360.644531 29.363281 369.226562 36.917969 C 369.226562 36.917969 383.683594 47.308594 380.382812 71.832031 C 380.382812 71.832031 377.3125 76.476562 385.058594 89.3125 C 385.058594 89.3125 387.964844 93.222656 386.160156 94.8125 C 384.65625 96.109375 380.675781 99.292969 380.675781 99.292969 " fill-opacity="1" fill-rule="nonzero"/><path fill="#ef7e65" d="M 326.605469 100.058594 C 330.84375 113.828125 342.601562 119.214844 348.933594 121.171875 L 348.601562 121.085938 C 349.21875 126.851562 350.144531 132.636719 351.0625 137.589844 C 325.316406 131.148438 326.605469 100.058594 326.605469 100.058594 " fill-opacity="1" fill-rule="nonzero"/><path fill="#6e6eb9" d="M 270.425781 343.089844 C 260.796875 330.601562 280.839844 241.871094 277.832031 188.882812 C 277.613281 184.953125 279.8125 173.238281 279.8125 173.238281 C 279.875 172.953125 279.945312 172.671875 280.015625 172.394531 C 280.230469 171.53125 280.460938 170.683594 280.691406 169.859375 C 280.769531 169.609375 280.839844 169.363281 280.910156 169.109375 C 281.171875 168.246094 281.433594 167.398438 281.703125 166.578125 L 281.710938 166.5625 C 282.652344 163.761719 283.695312 161.234375 284.796875 158.957031 L 285 158.527344 C 285.300781 157.886719 285.625 157.277344 285.941406 156.683594 C 286.054688 156.480469 286.15625 156.28125 286.261719 156.09375 C 286.570312 155.523438 286.886719 154.976562 287.195312 154.445312 L 287.519531 153.90625 C 287.84375 153.378906 288.167969 152.855469 288.492188 152.355469 L 288.671875 152.085938 C 289.765625 150.433594 290.847656 148.984375 291.902344 147.71875 L 292.148438 147.410156 C 292.445312 147.0625 292.722656 146.738281 293.007812 146.421875 L 293.378906 146.011719 C 293.648438 145.726562 293.910156 145.449219 294.171875 145.1875 L 294.550781 144.792969 C 294.789062 144.539062 295.035156 144.300781 295.273438 144.078125 L 295.628906 143.746094 C 296.378906 143.042969 297.066406 142.457031 297.652344 141.992188 L 297.984375 141.730469 L 298.382812 141.429688 L 298.691406 141.199219 L 299 140.984375 L 299.25 140.8125 L 299.449219 140.675781 L 299.65625 140.550781 L 299.742188 140.488281 L 299.835938 140.433594 C 300.785156 139.472656 301.695312 138.523438 302.582031 137.582031 L 302.582031 137.589844 L 302.582031 137.582031 C 306.453125 133.484375 309.664062 129.589844 312.171875 125.691406 L 312.15625 125.753906 C 326.589844 144.816406 338.210938 150.578125 348.894531 151.652344 C 350.6875 151.835938 354.605469 150.472656 357.667969 149.160156 C 360.300781 152.484375 363.53125 156.597656 366.703125 160.769531 L 366.734375 160.808594 L 366.8125 160.910156 L 366.820312 160.917969 C 368.855469 163.585938 370.839844 166.253906 372.652344 168.738281 L 372.804688 168.941406 C 373.367188 169.71875 373.902344 170.46875 374.417969 171.207031 L 374.527344 171.363281 L 374.609375 171.46875 C 375.113281 172.195312 375.597656 172.890625 376.054688 173.5625 L 376.207031 173.777344 C 376.640625 174.433594 377.070312 175.066406 377.441406 175.660156 L 377.488281 175.714844 L 377.566406 175.84375 C 377.945312 176.445312 378.292969 177.007812 378.59375 177.519531 C 383.050781 185.148438 401.714844 223.1875 388.035156 253.265625 C 388.035156 253.265625 376.308594 316.066406 374.339844 346.925781 C 374.339844 346.925781 373.238281 365.757812 367.265625 368.679688 C 361.292969 371.597656 279.605469 353.296875 270.425781 343.089844 " fill-opacity="1" fill-rule="nonzero"/><path fill="#6e6eb9" d="M 358.402344 150.085938 C 358.402344 150.085938 361.09375 145.851562 354.953125 145.734375 C 354.953125 145.734375 341.960938 150.015625 333.3125 140.605469 C 324.664062 131.195312 311.5 116.265625 305.550781 115.765625 C 299.949219 115.308594 293.910156 123.601562 299.949219 130.863281 C 299.949219 130.863281 298.144531 132.566406 299.835938 140.433594 C 299.835938 140.433594 339.5 163.609375 358.402344 150.085938 " fill-opacity="1" fill-rule="nonzero"/><path fill="#542f29" d="M 379.425781 47.324219 C 379.425781 47.324219 381.730469 51.921875 374.257812 49.628906 C 370.105469 48.347656 352.414062 46.460938 346.675781 49.628906 C 340.925781 52.785156 341.898438 70.117188 338.828125 72.425781 C 338.828125 72.425781 335.65625 76.636719 330.867188 76.636719 C 327.308594 76.636719 321.675781 68.878906 318.511719 70.605469 C 315.351562 72.324219 318.3125 89.574219 326.597656 91.867188 C 326.597656 91.867188 326.847656 96.480469 324.832031 100.058594 C 322.820312 103.652344 320.574219 110.773438 318.242188 109.941406 C 315.921875 109.113281 314.492188 96.171875 311.039062 92.445312 C 307.597656 88.710938 286.910156 56.234375 312.757812 32.378906 C 312.757812 32.378906 353.5625 0.765625 379.425781 47.324219 " fill-opacity="1" fill-rule="nonzero"/><path fill="#f69374" d="M 318.328125 281.957031 L 282.25 201.457031 C 282.25 201.457031 272.4375 162.226562 286.949219 149.761719 C 301.894531 136.917969 309.855469 145.648438 315.195312 163.222656 L 338.828125 245.558594 L 432.445312 199.613281 L 437.804688 207.664062 C 437.804688 207.664062 332.183594 307.082031 318.328125 281.957031 " fill-opacity="1" fill-rule="nonzero"/><path fill="#f69374" d="M 424.226562 203.640625 C 424.226562 203.640625 429.921875 167.089844 432.089844 174.972656 C 437.804688 195.671875 449.625 160.5 452.914062 161.023438 C 459.070312 161.996094 459.796875 191.417969 435.925781 209.402344 L 424.226562 203.640625 " fill-opacity="1" fill-rule="nonzero"/><path fill="#6e6eb9" d="M 424.226562 199.613281 C 424.226562 199.613281 433.59375 215.039062 424.226562 224.429688 C 424.226562 224.429688 352.265625 292.386719 324.261719 292.167969 C 295.113281 291.945312 278.222656 197.328125 278 191.417969 C 277.777344 185.496094 272.351562 143.628906 304.585938 140.605469 C 304.585938 140.605469 319.167969 139.246094 339.847656 239.851562 C 339.847656 239.851562 416.011719 199.613281 424.226562 199.613281 " fill-opacity="1" fill-rule="nonzero"/><path fill="#1d1b34" d="M 375.542969 41.050781 C 375.542969 41.050781 326.597656 37.964844 307.410156 87.019531 C 307.410156 87.019531 303.390625 89.605469 299.949219 78.542969 C 299.949219 78.542969 292.480469 66.808594 292.8125 47.695312 C 292.8125 47.695312 277.382812 45.015625 290.800781 32.605469 C 304.210938 20.199219 336.398438 0.40625 372.28125 32.605469 C 372.28125 32.605469 378.992188 32.980469 375.542969 41.050781 " fill-opacity="1" fill-rule="nonzero"/><path fill="#f04499" d="M 156.972656 175.40625 C 156.972656 175.40625 164.617188 175.503906 166.722656 182.957031 C 168.84375 190.433594 136.980469 214.160156 150.960938 296.273438 C 150.960938 296.273438 157.109375 326.777344 154.648438 331.667969 C 152.203125 336.566406 124.867188 328.339844 113.488281 310.542969 C 102.109375 292.746094 112.070312 275.507812 113.488281 259.382812 C 113.488281 259.382812 102.109375 258.828125 102.109375 242.703125 C 102.109375 226.566406 107.117188 180.972656 119.34375 175.40625 C 131.589844 169.851562 147.367188 169.902344 156.972656 175.40625 " fill-opacity="1" fill-rule="nonzero"/><path fill="#74191e" d="M 171.894531 68.082031 C 171.894531 68.082031 170.226562 52.785156 163.558594 53.625 C 156.886719 54.464844 143.539062 55.007812 139.371094 64.464844 C 135.191406 73.921875 136.21875 106.175781 156.972656 94.21875 L 171.894531 68.082031 " fill-opacity="1" fill-rule="nonzero"/><path fill="#f5876d" d="M 307.859375 725.40625 L 299.171875 729.851562 C 299.171875 729.851562 268.332031 680.808594 257.175781 661.285156 C 247.230469 643.867188 227.78125 616.957031 232.289062 563.550781 C 211.023438 533.210938 169.445312 451.109375 169.445312 451.109375 C 167.488281 446.070312 156.972656 438.277344 156.972656 438.277344 L 220.28125 403.75 C 233.855469 438.007812 252.886719 502.261719 269.4375 555.304688 C 269.4375 555.304688 272.945312 563.445312 270.71875 570.664062 C 270.71875 570.664062 267.152344 581.6875 276.1875 617.523438 C 279.628906 631.152344 307.859375 725.40625 307.859375 725.40625 " fill-opacity="1" fill-rule="nonzero"/><path fill="#575aa4" d="M 262.308594 532.292969 C 243.035156 463.796875 230.46875 428.417969 225.769531 416.507812 L 224.875 416.175781 L 200.136719 429.667969 L 170.621094 457.671875 C 172.449219 459.554688 174.03125 461.523438 174.679688 463.1875 C 174.679688 463.1875 190.625 499.128906 209.140625 546.890625 C 209.140625 546.890625 228.375 548.964844 235.75 546.890625 C 242.917969 544.875 262.308594 532.292969 262.308594 532.292969 " fill-opacity="1" fill-rule="nonzero"/><path fill="#f5876d" d="M 236.601562 218.417969 L 143.816406 218.417969 C 139.289062 236.625 139.589844 265.917969 156.777344 313.855469 C 169.113281 348.222656 140.730469 358.566406 130.609375 379.132812 C 130.609375 379.132812 130.277344 379.527344 129.773438 380.199219 C 159.285156 399.105469 193.386719 408.339844 227.210938 417.242188 C 227.535156 415.265625 227.851562 413.246094 228.152344 411.140625 C 228.375 411.109375 228.523438 411.09375 228.523438 411.09375 C 228.929688 408.339844 229.21875 404.351562 229.417969 399.566406 C 230.027344 391.421875 230.1875 382.542969 229.75 372.808594 C 229.625 351.300781 234.949219 335.933594 234.179688 324.730469 C 232.765625 305.019531 242.226562 289.691406 242.226562 289.691406 C 263.125 278.042969 263.046875 265.324219 261.011719 255.933594 C 260 251.296875 248.449219 234.621094 236.601562 218.417969 " fill-opacity="1" fill-rule="nonzero"/><path fill="#f5876d" d="M 159.425781 190.300781 C 157.070312 193.386719 150.628906 199.050781 146.09375 211 L 231.152344 211 C 220.066406 196.046875 210.144531 183.21875 210.136719 183.210938 C 206.625 178.066406 204.203125 173.808594 206.648438 161.101562 C 211.210938 162.28125 215.246094 163.144531 215.246094 163.144531 C 225.066406 165.152344 226.808594 165.019531 230.3125 165.050781 C 235.707031 165.128906 236.800781 160.390625 236.800781 160.390625 C 237.511719 154.523438 237.742188 148.8125 239.386719 146.921875 C 241.019531 145.011719 240.691406 142.578125 240.691406 142.578125 C 241.183594 140.414062 240.691406 137.960938 240.691406 137.960938 C 240.691406 137.960938 244.910156 134.582031 246.515625 133.214844 C 248.421875 131.539062 245.34375 127.382812 245.34375 127.382812 C 237.117188 113.75 240.382812 108.828125 240.382812 108.828125 C 243.882812 82.808594 228.546875 71.777344 228.546875 71.777344 C 219.425781 63.761719 212.320312 62.21875 200.023438 61.804688 L 200.023438 61.8125 C 188.621094 61.75 175.449219 65.582031 166.714844 80.78125 C 153.492188 103.722656 171.667969 136.878906 174.671875 142.070312 C 175.574219 157.019531 173.3125 175.945312 159.863281 189.574219 L 161.097656 189.652344 C 158.214844 190.648438 159.425781 190.300781 159.425781 190.300781 " fill-opacity="1" fill-rule="nonzero"/><path fill="#cf6556" d="M 183.3125 138.785156 C 183.3125 138.785156 182.015625 170.027344 207.121094 177.988281 C 205.546875 174.269531 205.015625 169.558594 206.648438 161.101562 L 207.003906 161.1875 C 200.285156 159.113281 187.816406 153.402344 183.3125 138.785156 " fill-opacity="1" fill-rule="nonzero"/><path fill="#f5876d" d="M 55.339844 617.011719 C 65.785156 599.894531 77.652344 575.308594 116.90625 553.246094 C 117.832031 534.167969 119.691406 513.199219 121.28125 497.332031 L 182.355469 497.332031 C 173.796875 518.390625 164.878906 533.195312 151.300781 569.515625 C 151.300781 569.515625 149.070312 578.101562 142.890625 582.4375 C 142.890625 582.4375 129.867188 587.328125 102.847656 612.546875 C 92.578125 622.128906 23.660156 692.351562 23.660156 692.351562 L 15.574219 686.882812 C 15.574219 686.882812 43.632812 636.199219 55.339844 617.011719 " fill-opacity="1" fill-rule="nonzero"/><path fill="#6ba9d8" d="M 117.128906 471.257812 C 118.378906 466.769531 117.878906 456.515625 117.128906 453.824219 C 111.914062 444.472656 113.664062 422.410156 113.78125 419.523438 C 116.1875 396.257812 130.601562 379.140625 130.609375 379.132812 C 132.785156 374.71875 135.808594 370.753906 139.085938 366.9375 C 163.265625 384.308594 213.03125 396.746094 230.28125 402.160156 C 231.546875 403.75 233.714844 409.15625 229.449219 411.617188 C 230.453125 463.820312 188.890625 476.914062 188.890625 476.914062 C 185.433594 488.253906 167.09375 538.011719 162.355469 551.332031 C 135.035156 552.550781 111.359375 537.460938 102.109375 532.292969 C 104.539062 515.824219 117.128906 471.257812 117.128906 471.257812 " fill-opacity="1" fill-rule="nonzero"/><path fill="#111321" d="M 236.285156 339.273438 C 237.464844 324.058594 240.109375 307.675781 239.0625 296.195312 C 240.765625 292.105469 242.226562 289.691406 242.226562 289.691406 C 263.125 278.042969 263.046875 265.324219 261.011719 255.933594 C 259.953125 251.097656 241.414062 225.023438 229.0625 208.191406 C 204.683594 195.957031 204.558594 197.34375 183.3125 185.65625 C 177.324219 182.355469 171.652344 181.066406 166.585938 180.921875 C 164.726562 183.960938 162.527344 186.882812 159.863281 189.574219 L 161.097656 189.652344 C 158.214844 190.648438 159.425781 190.300781 159.425781 190.300781 C 154.21875 197.113281 129.273438 216.453125 148.667969 288.109375 C 148.585938 293.519531 148.824219 299.226562 149.804688 303.570312 C 152.402344 315.058594 154.355469 328.226562 152.203125 336.566406 C 152.203125 336.566406 151.53125 340.816406 154.417969 341.6875 C 157.304688 342.550781 203.125 346.136719 233.898438 343.910156 C 233.898438 343.910156 235.882812 343.917969 236.285156 339.273438 " fill-opacity="1" fill-rule="nonzero"/><path fill="#f04499" d="M 269.121094 300.53125 C 269.121094 300.53125 185.511719 333.519531 143.816406 312.289062 L 143.816406 327.214844 C 143.816406 327.214844 194.367188 340.570312 274.460938 303.871094 L 269.121094 300.53125 " fill-opacity="1" fill-rule="nonzero"/><path fill="#1d1b34" d="M 17.804688 681.359375 C 21.808594 684.273438 24.445312 684.390625 24.445312 684.390625 C 24.902344 683.085938 25.78125 679.683594 26.824219 679.199219 C 31.066406 677.230469 38.679688 683.363281 38.679688 683.363281 C 38.914062 685.671875 36.453125 688.957031 38.789062 692.921875 C 46.464844 705.929688 56.117188 722.605469 59.953125 729.140625 C 63.363281 734.941406 63.144531 738.792969 61.796875 741.546875 C 61.796875 741.546875 60.933594 745 57.96875 743.992188 C 55.015625 743.003906 2.78125 704.222656 2.78125 704.222656 C 2.78125 704.222656 0.453125 699.402344 17.804688 681.359375 " fill-opacity="1" fill-rule="nonzero"/><path fill="#a3cdde" d="M 40.59375 696.039062 C 40.59375 696.039062 33.289062 692.445312 27.894531 697.050781 C 27.894531 697.050781 25.703125 699.070312 28.035156 700.035156 C 28.035156 700.035156 35.132812 697.226562 42.332031 698.96875 C 42.332031 698.96875 43.09375 697.703125 40.59375 696.039062 " fill-opacity="1" fill-rule="nonzero"/><path fill="#a3cdde" d="M 44.445312 702.84375 C 44.445312 702.84375 36.089844 698.730469 30.949219 703.800781 C 30.949219 703.800781 29.429688 704.878906 31.066406 706.207031 C 31.066406 706.207031 39.207031 702.070312 46.503906 705.921875 C 46.503906 705.921875 46.394531 703.589844 44.445312 702.84375 " fill-opacity="1" fill-rule="nonzero"/><path fill="#a3cdde" d="M 47.230469 707.863281 C 47.230469 707.863281 38.875 703.746094 33.726562 708.8125 C 33.726562 708.8125 32.214844 709.894531 33.859375 711.226562 C 33.859375 711.226562 42 707.09375 49.289062 710.933594 C 49.289062 710.933594 49.167969 708.613281 47.230469 707.863281 " fill-opacity="1" fill-rule="nonzero"/><path fill="#a3cdde" d="M 50.386719 712.941406 C 50.386719 712.941406 42.023438 708.835938 36.882812 713.898438 C 36.882812 713.898438 35.363281 714.976562 37.007812 716.3125 C 37.007812 716.3125 45.152344 712.175781 52.429688 716.019531 C 52.429688 716.019531 52.328125 713.695312 50.386719 712.941406 " fill-opacity="1" fill-rule="nonzero"/><path fill="#a3cdde" d="M 24.445312 684.390625 C 24.445312 684.390625 24.046875 686.710938 23.351562 686.757812 C 22.671875 686.796875 16.167969 685.054688 15.402344 684.003906 C 14.640625 682.945312 16.691406 680.886719 17.925781 680.941406 C 17.925781 680.941406 23.761719 684.136719 24.445312 684.390625 " fill-opacity="1" fill-rule="nonzero"/><path fill="#a3cdde" d="M 61.664062 742.230469 C 61.664062 742.230469 62.582031 744.074219 61.59375 745.417969 C 60.609375 746.761719 58.523438 748.085938 58.523438 748.085938 L 1.253906 706.152344 C 1.253906 706.152344 1.039062 701.183594 4.246094 698.621094 C 7.449219 696.054688 13.121094 701.753906 16.753906 709.191406 C 16.753906 709.191406 54.066406 737.332031 61.664062 742.230469 " fill-opacity="1" fill-rule="nonzero"/><path fill="#1d1b34" d="M 295.328125 726.417969 C 300.175781 725.453125 302.050781 723.59375 302.050781 723.59375 C 301.417969 722.375 299.496094 719.429688 299.851562 718.324219 C 301.285156 713.867188 310.945312 712.4375 310.945312 712.4375 C 312.8125 713.820312 313.550781 717.863281 318.050781 718.835938 C 332.816406 722.011719 351.613281 726.21875 359.027344 727.835938 C 365.585938 729.257812 368.277344 732.035156 369.386719 734.894531 C 369.386719 734.894531 371.332031 737.859375 368.601562 739.363281 C 365.855469 740.867188 301.941406 752.96875 301.941406 752.96875 C 301.941406 752.96875 296.824219 751.410156 295.328125 726.417969 " fill-opacity="1" fill-rule="nonzero"/><path fill="#a3cdde" d="M 321.554688 719.621094 C 321.554688 719.621094 313.96875 722.566406 313.699219 729.648438 C 313.699219 729.648438 313.691406 732.621094 315.984375 731.578125 C 315.984375 731.578125 318.738281 724.441406 324.894531 720.324219 C 324.894531 720.324219 324.484375 718.917969 321.554688 719.621094 " fill-opacity="1" fill-rule="nonzero"/><path fill="#a3cdde" d="M 329.175781 721.402344 C 329.175781 721.402344 320.488281 724.757812 320.726562 731.972656 C 320.726562 731.972656 320.496094 733.816406 322.578125 733.523438 C 322.578125 733.523438 325.0625 724.726562 332.832031 721.980469 C 332.832031 721.980469 331.042969 720.484375 329.175781 721.402344 " fill-opacity="1" fill-rule="nonzero"/><path fill="#a3cdde" d="M 334.753906 722.753906 C 334.753906 722.753906 326.074219 726.109375 326.296875 733.328125 C 326.296875 733.328125 326.074219 735.179688 328.148438 734.878906 C 328.148438 734.878906 330.632812 726.085938 338.402344 723.332031 C 338.402344 723.332031 336.621094 721.835938 334.753906 722.753906 " fill-opacity="1" fill-rule="nonzero"/><path fill="#a3cdde" d="M 340.625 723.886719 C 340.625 723.886719 331.9375 727.242188 332.175781 734.464844 C 332.175781 734.464844 331.945312 736.308594 334.027344 736 C 334.027344 736 336.503906 727.21875 344.273438 724.464844 C 344.273438 724.464844 342.492188 722.96875 340.625 723.886719 " fill-opacity="1" fill-rule="nonzero"/><path fill="#a3cdde" d="M 302.050781 723.59375 C 302.050781 723.59375 303.484375 725.46875 303.058594 726 C 302.613281 726.527344 296.933594 730.128906 295.636719 729.980469 C 294.347656 729.820312 294.226562 726.925781 295.097656 726.039062 C 295.097656 726.039062 301.410156 723.917969 302.050781 723.59375 " fill-opacity="1" fill-rule="nonzero"/><g clip-path="url(#5ce1bcd310)"><path fill="#a3cdde" d="M 369.796875 735.457031 C 369.796875 735.457031 371.765625 736.03125 372.082031 737.664062 C 372.410156 739.300781 371.972656 741.738281 371.972656 741.738281 L 302.3125 755.40625 C 302.3125 755.40625 298.53125 752.183594 298.816406 748.09375 C 299.109375 744 307.132812 743.683594 315.050781 746.066406 C 315.050781 746.066406 361.039062 737.71875 369.796875 735.457031 " fill-opacity="1" fill-rule="nonzero"/></g><path fill="#872624" d="M 230.28125 70.304688 C 230.28125 70.304688 248.359375 75.03125 245.011719 91.996094 C 245.011719 91.996094 228.886719 97.273438 220.832031 97.550781 C 220.832031 97.550781 211.101562 109.792969 205.816406 112.015625 C 205.816406 112.015625 202.445312 115.355469 196.621094 107.292969 C 190.796875 99.21875 185.511719 103.113281 184.96875 107.007812 C 184.398438 110.898438 184.691406 123.964844 188.859375 127.582031 C 188.859375 127.582031 177.230469 147.886719 174.847656 147.886719 C 172.449219 147.886719 141.039062 111.738281 161.058594 77.261719 C 161.058594 77.261719 180.726562 40.742188 230.28125 70.304688 " fill-opacity="1" fill-rule="nonzero"/><path fill="#f04499" d="M 154.417969 182.824219 C 154.417969 182.824219 265.402344 211 268.742188 290.332031 L 274.242188 290.332031 C 274.242188 290.332031 284.773438 198.585938 161.707031 176.707031 L 154.417969 182.824219 " fill-opacity="1" fill-rule="nonzero"/><path fill="#f5876d" d="M 197.617188 315.050781 L 196.234375 215.464844 C 196.628906 191.464844 181.714844 177.054688 165.84375 183.1875 C 149.980469 189.320312 155.089844 215.140625 155.089844 215.140625 L 176.382812 318.3125 L 197.617188 315.050781 " fill-opacity="1" fill-rule="nonzero"/><path fill="#f5876d" d="M 262.378906 297.375 L 173.652344 305.089844 C 173.652344 305.089844 174.398438 321.945312 179.640625 326.414062 C 186.359375 332.144531 263.882812 305.5 263.882812 305.5 L 262.378906 297.375 " fill-opacity="1" fill-rule="nonzero"/><path fill="#f5876d" d="M 258.359375 306.347656 C 258.359375 306.347656 268.371094 307.105469 271.703125 306.546875 C 271.703125 306.546875 276.890625 306.496094 278.5625 303.902344 C 278.5625 303.902344 280.785156 301.308594 279.667969 300.199219 C 279.667969 300.199219 283.007812 297.414062 280.972656 295.378906 C 280.972656 295.378906 283.785156 291.851562 281.632812 290.742188 C 281.632812 290.742188 285.414062 284.070312 279.496094 284.996094 C 279.496094 284.996094 273.371094 286.628906 270.957031 286.253906 C 268.550781 285.882812 267.261719 284.59375 265.773438 285.519531 C 264.296875 286.4375 255.292969 295.632812 255.402344 297.984375 L 258.359375 306.347656 " fill-opacity="1" fill-rule="nonzero"/><path fill="#232444" d="M 199.921875 302.800781 C 199.921875 302.800781 183.109375 320.929688 177.363281 323.25 C 171.621094 325.5625 168.699219 311.199219 166.824219 302.800781 C 164.949219 294.414062 137.40625 185.980469 166.585938 180.921875 C 166.585938 180.921875 189.746094 173.847656 196.003906 198.964844 L 199.921875 293.304688 C 199.921875 293.304688 202.367188 300.222656 199.921875 302.800781 " fill-opacity="1" fill-rule="nonzero"/></g></g></g></svg>