<svg xmlns="http://www.w3.org/2000/svg" xmlns:xlink="http://www.w3.org/1999/xlink" width="1920" zoomAndPan="magnify" viewBox="0 0 1440 809.999993" height="1080" preserveAspectRatio="xMidYMid meet" version="1.0"><defs><filter x="0%" y="0%" width="100%" height="100%" id="ce3696bfc6"><feColorMatrix values="0 0 0 0 1 0 0 0 0 1 0 0 0 0 1 0 0 0 1 0" color-interpolation-filters="sRGB"/></filter><mask id="2bb54f525d"><g filter="url(#ce3696bfc6)"><rect x="-144" width="1728" fill="#000000" y="-80.999999" height="971.999992" fill-opacity="0.5"/></g></mask><clipPath id="0a070d42e2"><path d="M 0.945312 2.445312 L 399.195312 2.445312 L 399.195312 754.71875 L 0.945312 754.71875 Z M 0.945312 2.445312 " clip-rule="nonzero"/></clipPath><clipPath id="9dc5ebf90e"><path d="M 0.945312 114 L 188 114 L 188 399 L 0.945312 399 Z M 0.945312 114 " clip-rule="nonzero"/></clipPath><clipPath id="e7d66f34f9"><rect x="0" width="400" y="0" height="753"/></clipPath><clipPath id="74cb853c3e"><rect x="0" width="402" y="0" height="755"/></clipPath></defs><g mask="url(#2bb54f525d)"><g transform="matrix(1, 0, 0, 1, 484, 26)"><g clip-path="url(#74cb853c3e)"><g clip-path="url(#0a070d42e2)"><g transform="matrix(1, 0, 0, 1, 0.000000000000056843, 2)"><g clip-path="url(#e7d66f34f9)"><g clip-path="url(#9dc5ebf90e)"><path fill="#f6be8f" d="M 0.945312 398.394531 C 2.496094 391.261719 4.976562 379.476562 8.078125 369.242188 C 9.941406 363.351562 12.109375 358.390625 13.972656 356.527344 C 21.105469 350.015625 30.410156 348.464844 37.542969 340.710938 C 45.605469 331.71875 50.257812 319.621094 56.769531 309.390625 C 61.421875 302.253906 66.074219 295.121094 70.726562 287.988281 C 80.339844 273.105469 92.125 265.351562 103.597656 252.945312 C 105.148438 251.394531 106.699219 249.535156 107.941406 247.671875 C 108.25 246.742188 108.558594 245.503906 108.558594 244.570312 C 108.558594 244.261719 108.558594 243.953125 108.871094 243.640625 C 114.453125 219.761719 120.65625 196.191406 129.339844 173.554688 C 134.300781 160.527344 140.191406 147.8125 147.328125 135.71875 C 150.425781 130.136719 154.148438 124.554688 159.109375 120.832031 C 161.28125 118.96875 163.453125 117.730469 165.625 116.488281 C 167.792969 115.25 169.65625 114.628906 171.207031 114.320312 C 180.199219 112.769531 184.851562 121.140625 186.710938 131.6875 C 188.574219 141.921875 187.953125 154.324219 187.023438 161.769531 C 182.992188 191.851562 173.996094 221.003906 160.660156 247.671875 C 159.109375 251.085938 157.25 254.496094 155.390625 257.597656 C 150.738281 265.972656 145.777344 274.34375 140.191406 282.097656 C 125.925781 302.875 108.871094 321.484375 89.332031 336.988281 C 73.824219 349.394531 51.808594 356.21875 39.402344 372.34375 C 34.441406 378.855469 30.71875 384.4375 26.375 389.089844 C 18.625 394.054688 9.628906 395.914062 0.945312 398.394531 Z M 0.945312 398.394531 " fill-opacity="1" fill-rule="nonzero"/></g><path fill="#55beb3" d="M 108.871094 243.640625 C 123.757812 250.464844 139.574219 255.117188 155.699219 257.90625 C 157.558594 254.496094 159.109375 251.394531 160.972656 247.984375 C 174.308594 221.3125 183.300781 192.160156 187.332031 162.078125 C 188.261719 154.636719 188.882812 142.230469 187.023438 131.996094 C 185.160156 121.453125 180.511719 113.078125 171.515625 114.628906 C 169.65625 114.9375 167.792969 115.558594 165.933594 116.800781 C 164.074219 117.730469 161.902344 119.28125 159.421875 121.140625 C 154.460938 124.863281 151.046875 130.445312 147.636719 136.027344 C 140.503906 148.121094 134.609375 160.835938 129.648438 173.863281 C 120.964844 196.191406 114.453125 220.070312 108.871094 243.640625 Z M 108.871094 243.640625 " fill-opacity="1" fill-rule="nonzero"/><path fill="#41657c" d="M 121.894531 152.152344 C 118.175781 103.464844 145.464844 100.671875 179.578125 124.863281 C 194.777344 135.71875 226.410156 145.332031 225.789062 164.871094 C 218.34375 151.222656 204.390625 157.425781 191.054688 150.914062 C 150.117188 130.445312 161.59375 163.007812 172.757812 185.648438 C 189.195312 218.832031 211.210938 247.984375 236.953125 271.554688 C 240.675781 274.964844 245.328125 280.238281 243.464844 285.507812 C 242.84375 287.679688 240.984375 289.230469 239.433594 290.160156 C 227.648438 298.84375 212.453125 298.84375 199.425781 293.570312 C 186.402344 287.988281 175.238281 277.753906 165.933594 265.972656 C 140.8125 235.269531 125.308594 194.640625 121.894531 152.152344 Z M 121.894531 152.152344 " fill-opacity="1" fill-rule="nonzero"/><path fill="#41657c" d="M 226.410156 127.34375 C 269.207031 116.800781 313.246094 148.742188 333.402344 190.609375 C 353.5625 232.476562 355.109375 281.167969 354.800781 328.304688 C 354.800781 341.023438 354.179688 355.289062 346.117188 364.902344 C 338.363281 374.207031 325.960938 376.6875 314.792969 378.546875 C 306.730469 379.789062 298.359375 380.71875 290.914062 376.996094 C 281.609375 372.34375 276.960938 361.488281 272.925781 351.253906 C 245.015625 278.066406 228.890625 199.605469 226.410156 120.210938 Z M 226.410156 127.34375 " fill-opacity="1" fill-rule="nonzero"/><path fill="#f6be8f" d="M 96.777344 732.402344 C 96.777344 732.402344 96.777344 732.710938 96.777344 732.710938 C 87.472656 726.820312 77.546875 721.859375 67.933594 716.585938 C 68.554688 715.65625 68.863281 714.726562 69.175781 713.792969 C 69.484375 713.175781 69.175781 712.863281 69.175781 712.242188 L 78.167969 643.707031 L 108.871094 691.15625 L 114.144531 668.824219 Z M 96.777344 732.402344 " fill-opacity="1" fill-rule="nonzero"/><path fill="#41657c" d="M 98.015625 731.472656 L 92.433594 743.257812 C 90.261719 747.910156 84.992188 750.078125 80.339844 748.21875 L 36.921875 730.542969 C 36.609375 730.542969 36.609375 730.230469 36.300781 730.230469 C 33.507812 728.679688 31.957031 725.269531 32.890625 721.859375 C 33.820312 718.757812 36.609375 716.585938 39.710938 716.894531 L 65.761719 719.066406 C 67.003906 719.066406 68.242188 719.066406 69.175781 718.445312 C 77.546875 720.617188 85.609375 724.027344 93.363281 728.058594 C 94.605469 729.300781 96.464844 730.230469 98.015625 731.472656 Z M 98.015625 731.472656 " fill-opacity="1" fill-rule="nonzero"/><path fill="#9d8174" d="M 113.210938 684.332031 C 111.972656 689.605469 110.421875 695.1875 109.492188 700.457031 C 106.078125 715.964844 69.484375 705.109375 71.34375 688.363281 C 74.757812 657.972656 79.097656 618.585938 84.679688 588.503906 C 97.085938 523.996094 116.933594 460.730469 148.566406 408.007812 C 160.351562 388.160156 175.546875 372.65625 187.644531 353.425781 C 196.945312 338.230469 205.320312 303.496094 214.625 292.640625 C 229.511719 275.273438 237.261719 263.800781 259.59375 284.269531 C 305.800781 326.753906 249.667969 431.269531 222.6875 468.171875 C 174.617188 533.921875 135.542969 596.875 113.210938 684.332031 Z M 113.210938 684.332031 " fill-opacity="1" fill-rule="nonzero"/><path fill="#f6be8f" d="M 184.542969 70.589844 C 188.882812 85.167969 195.707031 98.8125 204.078125 111.21875 C 204.699219 112.457031 205.628906 113.699219 205.320312 114.9375 C 205.011719 116.179688 203.460938 116.800781 202.21875 117.109375 C 188.574219 120.832031 174.617188 122.070312 160.660156 120.519531 C 160.660156 107.1875 155.390625 94.160156 146.707031 84.855469 C 159.109375 76.792969 173.375 72.453125 187.644531 72.140625 C 188.261719 73.382812 188.574219 74.933594 189.191406 76.171875 Z M 184.542969 70.589844 " fill-opacity="1" fill-rule="nonzero"/><path fill="#f6be8f" d="M 373.71875 670.066406 L 389.226562 693.945312 L 396.359375 705.109375 C 399.148438 709.453125 398.21875 715.34375 394.496094 718.757812 L 359.144531 749.769531 C 358.832031 749.769531 358.832031 750.078125 358.523438 750.078125 C 355.730469 751.941406 352.320312 751.628906 349.839844 749.148438 C 347.667969 746.667969 347.359375 743.257812 349.21875 740.464844 L 363.484375 717.515625 C 364.105469 716.585938 364.414062 715.34375 364.726562 714.105469 C 364.726562 713.792969 364.726562 713.484375 364.726562 713.175781 C 364.726562 711.933594 364.105469 711.003906 363.792969 710.074219 C 363.484375 709.453125 363.175781 709.453125 362.863281 708.832031 L 349.527344 688.363281 Z M 373.71875 670.066406 " fill-opacity="1" fill-rule="nonzero"/><path fill="#41657c" d="M 389.226562 693.945312 L 396.359375 705.109375 C 399.148438 709.453125 398.21875 715.34375 394.496094 718.757812 L 359.144531 749.769531 C 358.832031 749.769531 358.832031 750.078125 358.523438 750.078125 C 355.730469 751.941406 352.320312 751.628906 349.839844 749.148438 C 347.667969 746.667969 347.359375 743.257812 349.21875 740.464844 L 363.484375 717.515625 C 364.105469 716.585938 364.414062 715.34375 364.726562 714.105469 C 370.617188 707.589844 377.128906 701.699219 384.574219 696.738281 C 385.8125 695.808594 387.363281 694.875 389.226562 693.945312 Z M 389.226562 693.945312 " fill-opacity="1" fill-rule="nonzero"/><path fill="#9d8174" d="M 231.058594 516.863281 C 264.242188 577.957031 300.527344 635.023438 343.945312 688.675781 C 347.359375 692.707031 352.941406 694.257812 357.59375 692.085938 C 362.554688 689.914062 367.515625 687.433594 372.167969 684.640625 C 377.441406 681.542969 379.300781 674.71875 376.820312 668.824219 C 364.105469 639.675781 342.707031 619.207031 328.441406 590.984375 C 298.667969 531.441406 303.628906 461.660156 289.675781 396.84375 C 282.542969 363.351562 260.210938 374.515625 233.851562 375.753906 C 224.238281 376.066406 180.820312 380.71875 181.128906 361.800781 C 180.511719 406.457031 196.015625 449.566406 216.175781 488.640625 C 221.136719 497.945312 226.097656 507.558594 231.058594 516.863281 Z M 231.058594 516.863281 " fill-opacity="1" fill-rule="nonzero"/><path fill="#55beb3" d="M 140.8125 232.476562 C 142.054688 240.539062 142.675781 248.914062 142.675781 257.289062 C 142.675781 287.371094 147.015625 318.691406 151.667969 348.464844 C 156.007812 377.617188 154.148438 385.988281 182.371094 387.539062 C 208.109375 388.78125 233.542969 391.261719 259.28125 390.023438 C 268.894531 389.402344 278.511719 389.710938 287.503906 389.402344 C 309.523438 388.472656 298.046875 349.394531 299.910156 335.4375 C 303.628906 309.390625 302.078125 282.71875 297.738281 256.667969 C 293.085938 229.375 284.402344 202.394531 272.617188 177.894531 C 262.382812 157.117188 250.597656 125.792969 232.609375 111.835938 C 211.210938 95.089844 197.875 93.539062 179.890625 99.121094 C 168.726562 102.535156 158.179688 109.667969 150.738281 119.589844 C 137.710938 136.027344 133.058594 158.355469 133.992188 179.753906 C 134.300781 198.054688 138.332031 215.109375 140.8125 232.476562 Z M 140.8125 232.476562 " fill-opacity="1" fill-rule="nonzero"/><path fill="#55beb3" d="M 170.894531 260.078125 C 168.105469 262.558594 165.003906 265.039062 161.59375 266.902344 L 181.441406 260.699219 C 178.027344 260.386719 174.308594 260.386719 170.894531 260.078125 Z M 170.894531 260.078125 " fill-opacity="1" fill-rule="nonzero"/><path fill="#f6be8f" d="M 211.210938 103.773438 C 200.667969 124.242188 175.238281 134.167969 155.078125 125.792969 C 151.976562 124.554688 148.566406 122.070312 149.1875 118.351562 C 149.496094 116.488281 150.738281 115.25 151.976562 114.007812 C 166.242188 99.742188 186.710938 92.921875 205.941406 96.332031 C 210.28125 96.953125 215.242188 103.152344 211.210938 105.015625 Z M 211.210938 103.773438 " fill-opacity="1" fill-rule="nonzero"/><path fill="#f6be8f" d="M 166.863281 91.058594 C 165.625 92.300781 163.761719 93.851562 161.28125 95.089844 C 153.839844 99.433594 142.984375 97.882812 136.160156 93.539062 C 116.3125 80.824219 100.808594 33.6875 130.578125 23.140625 C 138.332031 20.660156 146.394531 21.902344 152.910156 27.171875 C 159.109375 32.445312 162.210938 39.578125 165.003906 47.332031 C 167.484375 53.84375 169.34375 60.355469 170.585938 67.179688 C 164.691406 77.101562 174.925781 82.996094 166.863281 91.058594 Z M 166.863281 91.058594 " fill-opacity="1" fill-rule="nonzero"/><path fill="#b66d1f" d="M 92.742188 19.109375 C 93.054688 16.9375 93.984375 15.078125 95.226562 13.527344 C 96.464844 11.667969 98.324219 10.425781 100.1875 9.804688 C 102.046875 8.566406 104.527344 7.945312 107.007812 8.253906 C 108.558594 8.566406 110.109375 8.566406 111.972656 8.875 C 113.832031 9.496094 115.382812 10.117188 116.933594 11.046875 C 117.554688 11.046875 118.175781 11.046875 118.484375 11.046875 C 119.105469 10.117188 119.726562 8.875 120.65625 7.945312 C 122.207031 6.085938 124.066406 4.84375 126.238281 3.914062 C 128.410156 2.671875 130.578125 2.054688 133.058594 2.054688 C 134.609375 2.363281 136.472656 2.671875 138.023438 2.671875 C 139.574219 3.292969 141.125 3.914062 142.675781 4.84375 C 143.605469 4.84375 144.535156 4.535156 145.464844 4.535156 C 147.015625 4.84375 148.566406 4.84375 150.425781 5.152344 C 151.976562 5.773438 153.527344 6.394531 154.769531 7.324219 C 155.390625 7.015625 156.320312 6.703125 156.941406 6.394531 C 158.492188 6.085938 160.042969 6.085938 161.902344 5.773438 C 165.3125 5.773438 168.105469 6.703125 170.894531 8.253906 C 174.308594 11.046875 175.238281 11.667969 177.410156 15.699219 C 178.339844 17.25 178.648438 18.800781 178.960938 20.351562 C 187.023438 21.28125 193.226562 28.722656 191.675781 36.785156 C 191.054688 39.269531 190.125 41.4375 188.574219 43.300781 C 188.574219 43.300781 188.574219 43.609375 188.574219 43.609375 C 188.261719 44.539062 187.953125 45.46875 187.332031 46.402344 C 187.953125 46.710938 188.261719 47.019531 188.574219 47.640625 C 189.191406 48.570312 189.8125 49.503906 190.433594 50.433594 C 191.363281 52.601562 191.675781 54.773438 191.363281 57.253906 C 191.054688 58.496094 190.433594 59.425781 190.125 60.667969 C 190.125 60.976562 189.8125 60.976562 189.8125 61.285156 C 191.363281 63.457031 192.292969 65.9375 191.675781 68.730469 C 190.125 74.933594 183.609375 79.894531 175.859375 79.894531 C 171.515625 79.894531 167.792969 78.035156 165.3125 75.554688 C 161.28125 74.3125 158.179688 71.210938 157.25 67.800781 C 158.800781 67.488281 160.351562 66.871094 161.59375 65.9375 C 163.144531 64.699219 164.074219 62.835938 164.074219 60.976562 C 164.074219 58.804688 163.144531 56.945312 160.972656 55.394531 C 160.351562 55.085938 160.042969 54.773438 159.421875 54.773438 C 158.800781 54.464844 158.492188 54.152344 157.558594 54.152344 C 156.011719 53.84375 154.460938 53.84375 152.910156 54.152344 C 152.910156 54.152344 152.597656 54.152344 152.597656 54.152344 C 151.976562 52.601562 151.667969 50.742188 151.667969 48.882812 L 151.667969 48.570312 C 151.667969 48.261719 151.667969 48.261719 151.667969 47.953125 C 150.738281 48.261719 149.496094 48.261719 148.566406 48.261719 C 144.226562 47.953125 139.882812 46.402344 136.78125 43.300781 C 134.921875 44.539062 133.371094 45.46875 130.890625 45.78125 C 129.339844 46.089844 128.097656 46.402344 126.546875 46.402344 C 125.617188 46.710938 124.996094 47.332031 124.066406 47.640625 C 122.515625 48.570312 120.65625 48.882812 118.484375 48.882812 C 118.175781 48.882812 117.554688 48.882812 117.242188 48.882812 C 116.933594 48.882812 116.933594 48.882812 116.625 48.882812 C 115.382812 48.570312 113.832031 48.570312 112.28125 48.261719 C 112.28125 48.261719 112.28125 48.261719 111.972656 48.261719 C 111.972656 48.261719 111.660156 48.261719 111.660156 48.261719 C 111.660156 48.261719 111.351562 48.261719 111.351562 48.261719 C 110.109375 47.953125 108.558594 47.332031 107.320312 46.710938 C 105.769531 46.089844 104.527344 45.160156 103.289062 44.230469 C 102.976562 44.230469 102.976562 43.917969 102.667969 43.917969 C 101.738281 43.300781 100.1875 41.75 99.566406 40.820312 C 99.566406 40.820312 99.257812 40.507812 99.257812 40.507812 C 98.945312 39.886719 98.015625 38.648438 98.015625 38.648438 C 98.015625 38.648438 97.707031 38.027344 97.394531 37.71875 L 96.777344 37.097656 C 94.914062 34.617188 93.675781 32.136719 93.054688 29.035156 L 92.433594 26.242188 C 91.8125 23.140625 91.8125 20.96875 92.742188 19.109375 Z M 92.742188 19.109375 " fill-opacity="1" fill-rule="nonzero"/><path fill="#41657c" d="M 174.925781 139.4375 C 171.207031 90.75 198.496094 87.957031 232.609375 112.148438 C 247.808594 123.003906 279.441406 132.617188 278.820312 152.152344 C 271.378906 138.507812 257.421875 144.710938 244.085938 138.199219 C 203.148438 117.730469 214.625 150.292969 225.789062 172.933594 C 242.226562 206.117188 264.242188 235.269531 289.984375 258.839844 C 293.707031 262.25 298.359375 267.523438 296.496094 272.792969 C 295.878906 274.964844 294.015625 276.515625 292.464844 277.445312 C 280.679688 286.128906 265.484375 286.128906 252.460938 280.855469 C 239.433594 275.273438 228.269531 265.039062 218.964844 253.253906 C 193.84375 222.554688 178.027344 181.925781 174.925781 139.4375 Z M 174.925781 139.4375 " fill-opacity="1" fill-rule="nonzero"/><path fill="#f6be8f" d="M 200.046875 127.964844 C 201.910156 121.140625 205.941406 115.871094 212.761719 113.699219 C 229.199219 108.425781 257.730469 144.402344 267.035156 155.566406 C 279.75 171.070312 291.226562 189.988281 300.21875 210.769531 C 316.964844 248.914062 325.648438 294.191406 318.828125 337.300781 C 315.414062 358.390625 303.320312 391.882812 291.84375 409.558594 C 288.742188 414.210938 282.851562 419.792969 276.027344 423.207031 C 267.34375 418.863281 254.941406 411.730469 252.460938 401.1875 C 257.109375 397.15625 261.761719 392.8125 265.484375 388.160156 C 269.515625 385.988281 273.546875 383.820312 277.578125 381.957031 C 279.128906 381.339844 280.992188 379.789062 280.679688 377.617188 C 280.0625 372.65625 279.128906 338.230469 277.578125 329.546875 C 275.097656 314.660156 270.757812 300.085938 267.34375 285.507812 C 267.34375 284.578125 267.65625 283.339844 267.65625 282.40625 C 263.625 269.382812 256.492188 257.289062 249.046875 245.503906 C 245.328125 239.300781 241.605469 233.40625 238.195312 227.203125 C 229.199219 210.457031 215.863281 197.433594 207.800781 180.6875 C 202.527344 169.832031 195.394531 144.402344 200.046875 127.964844 Z M 200.046875 127.964844 " fill-opacity="1" fill-rule="nonzero"/><path fill="#55beb3" d="M 207.800781 180.6875 C 215.863281 197.433594 229.511719 210.457031 238.195312 227.203125 C 241.605469 233.40625 245.328125 239.609375 249.046875 245.503906 C 268.277344 238.988281 286.261719 226.894531 300.21875 210.769531 C 291.226562 189.988281 279.75 171.070312 267.035156 155.566406 C 257.730469 144.089844 229.199219 108.425781 212.761719 113.699219 C 205.941406 115.871094 201.910156 121.140625 200.046875 127.964844 C 195.394531 144.402344 202.527344 169.832031 207.800781 180.6875 Z M 207.800781 180.6875 " fill-opacity="1" fill-rule="nonzero"/></g></g></g></g></g></g></svg>